<?xml version="1.0" encoding="utf-8"?>
<svg viewBox="3.0735 8.5771 493.3428 67.3471" xmlns="http://www.w3.org/2000/svg">
  <path d="M 22.422 17.295 L 16.666 17.295 L 17.628 13.439 Q 18.047 11.757 17.966 11.34 Q 17.886 10.923 17.257 10.923 Q 16.546 10.923 16.228 11.429 Q 15.911 11.935 15.491 13.617 L 12.928 23.898 Q 12.526 25.511 12.594 26.004 Q 12.663 26.496 13.333 26.496 Q 13.976 26.496 14.297 26.004 Q 14.618 25.511 15.071 23.693 L 15.763 20.918 L 21.519 20.918 L 21.304 21.779 Q 20.448 25.211 19.605 26.646 Q 18.762 28.082 16.831 29.162 Q 14.901 30.242 12.467 30.242 Q 9.938 30.242 8.526 29.326 Q 7.114 28.41 6.984 26.79 Q 6.855 25.17 7.666 21.916 L 9.279 15.449 Q 9.875 13.056 10.338 11.86 Q 10.8 10.664 11.89 9.556 Q 12.979 8.449 14.58 7.813 Q 16.181 7.177 18.054 7.177 Q 20.597 7.177 22.006 8.162 Q 23.415 9.146 23.568 10.616 Q 23.721 12.086 22.947 15.189 Z M 39.976 7.642 L 36.287 22.435 Q 35.66 24.951 35.242 25.969 Q 34.824 26.988 33.75 28.061 Q 32.676 29.134 31.218 29.688 Q 29.761 30.242 27.97 30.242 Q 25.988 30.242 24.634 29.586 Q 23.28 28.929 22.79 27.877 Q 22.301 26.824 22.455 25.655 Q 22.61 24.486 23.544 20.74 L 26.81 7.642 L 32.566 7.642 L 28.427 24.24 Q 28.066 25.689 28.123 26.092 Q 28.179 26.496 28.658 26.496 Q 29.205 26.496 29.473 26.051 Q 29.741 25.607 30.153 23.953 L 34.22 7.642 Z M 53.236 17.295 L 47.48 17.295 L 48.442 13.439 Q 48.861 11.757 48.78 11.34 Q 48.7 10.923 48.071 10.923 Q 47.36 10.923 47.042 11.429 Q 46.725 11.935 46.306 13.617 L 43.742 23.898 Q 43.34 25.511 43.409 26.004 Q 43.477 26.496 44.147 26.496 Q 44.79 26.496 45.111 26.004 Q 45.432 25.511 45.885 23.693 L 46.577 20.918 L 52.333 20.918 L 52.118 21.779 Q 51.263 25.211 50.419 26.646 Q 49.576 28.082 47.646 29.162 Q 45.715 30.242 43.282 30.242 Q 40.752 30.242 39.34 29.326 Q 37.928 28.41 37.799 26.79 Q 37.669 25.17 38.481 21.916 L 40.093 15.449 Q 40.689 13.056 41.152 11.86 Q 41.614 10.664 42.704 9.556 Q 43.793 8.449 45.394 7.813 Q 46.995 7.177 48.868 7.177 Q 51.411 7.177 52.82 8.162 Q 54.229 9.146 54.382 10.616 Q 54.535 12.086 53.761 15.189 Z M 70.79 7.642 L 67.102 22.435 Q 66.474 24.951 66.056 25.969 Q 65.638 26.988 64.564 28.061 Q 63.49 29.134 62.033 29.688 Q 60.575 30.242 58.784 30.242 Q 56.802 30.242 55.448 29.586 Q 54.094 28.929 53.604 27.877 Q 53.115 26.824 53.27 25.655 Q 53.424 24.486 54.358 20.74 L 57.624 7.642 L 63.38 7.642 L 59.242 24.24 Q 58.88 25.689 58.937 26.092 Q 58.994 26.496 59.472 26.496 Q 60.019 26.496 60.287 26.051 Q 60.555 25.607 60.967 23.953 L 65.034 7.642 Z M 77.952 7.642 L 82.026 7.642 Q 86.1 7.642 87.464 7.957 Q 88.828 8.271 89.415 9.563 Q 90.002 10.855 89.296 13.685 Q 88.652 16.269 87.788 17.158 Q 86.924 18.047 84.993 18.224 Q 86.596 18.648 87.007 19.359 Q 87.417 20.07 87.413 20.665 Q 87.408 21.259 86.74 23.939 L 85.284 29.777 L 79.939 29.777 L 81.773 22.422 Q 82.216 20.644 82.041 20.22 Q 81.866 19.797 80.677 19.797 L 78.189 29.777 L 72.433 29.777 Z M 82.763 11.429 L 81.536 16.351 Q 82.507 16.351 82.963 16.085 Q 83.419 15.818 83.784 14.355 L 84.087 13.138 Q 84.35 12.086 84.055 11.757 Q 83.761 11.429 82.763 11.429 Z M 106.115 7.642 L 102.426 22.435 Q 101.799 24.951 101.381 25.969 Q 100.963 26.988 99.889 28.061 Q 98.815 29.134 97.357 29.688 Q 95.9 30.242 94.109 30.242 Q 92.127 30.242 90.773 29.586 Q 89.419 28.929 88.929 27.877 Q 88.44 26.824 88.594 25.655 Q 88.749 24.486 89.683 20.74 L 92.949 7.642 L 98.705 7.642 L 94.566 24.24 Q 94.205 25.689 94.262 26.092 Q 94.318 26.496 94.797 26.496 Q 95.344 26.496 95.612 26.051 Q 95.88 25.607 96.292 23.953 L 100.359 7.642 Z M 121.577 7.642 L 116.058 29.777 L 110.302 29.777 L 112.62 20.48 L 110.897 20.48 L 108.579 29.777 L 102.824 29.777 L 108.342 7.642 L 114.098 7.642 L 112.125 15.558 L 113.847 15.558 L 115.821 7.642 Z M 129.642 7.642 L 124.123 29.777 L 118.367 29.777 L 123.886 7.642 Z M 144.216 7.642 L 136.498 21.765 L 134.5 29.777 L 129.168 29.777 L 131.166 21.765 L 130.64 7.642 L 135.931 7.642 Q 135.563 14.109 135.154 16.351 Q 136.516 12.81 138.925 7.642 Z M 153.747 7.642 L 151.523 29.777 L 145.63 29.777 L 146.335 25.798 L 144.271 25.798 L 142.937 29.777 L 136.976 29.777 L 145.421 7.642 Z M 147.149 21.875 Q 147.649 18.115 148.589 12.591 Q 146.132 18.935 145.181 21.875 Z M 168.074 7.642 L 166.969 12.072 L 163.551 12.072 L 159.137 29.777 L 153.381 29.777 L 157.795 12.072 L 154.391 12.072 L 155.495 7.642 Z M 182.236 7.642 L 176.718 29.777 L 171.673 29.777 L 171.187 19.715 L 168.679 29.777 L 163.866 29.777 L 169.385 7.642 L 174.197 7.642 L 174.939 17.609 L 177.424 7.642 Z M 194.486 7.642 L 192.262 29.777 L 186.37 29.777 L 187.075 25.798 L 185.01 25.798 L 183.676 29.777 L 177.715 29.777 L 186.16 7.642 Z M 187.889 21.875 Q 188.389 18.115 189.328 12.591 Q 186.872 18.935 185.92 21.875 Z" transform="matrix(2.6308851242065434, 0, 0, 2.9198830127716064, -15.254012335151614, -12.378946488781963)" style="fill: none; stroke: rgb(0, 0, 0); stroke-width: 0.720621px;"/>
</svg>